<svg xmlns="http://www.w3.org/2000/svg" width="37.939" height="53.994" viewBox="0 0 37.939 53.994">
  <g id="icon-diamond" transform="translate(-761.535 -618.406)">
    <g id="gem_2" data-name="gem 2" transform="translate(761.535 618.406)">
      <path id="Union_2" data-name="Union 2" d="M8.515,53.994,0,45.972V8.531L8.5,0h21.69l7.744,8.549V45.954l-.448.465-.1.217-.079-.035-7.132,7.393Zm20.149-1.281-2.3-6.021h-14l-2.247,6.021ZM8.822,52.522l2.507-6.716L8.815,43.122l-6.77,3.016Zm21.1-.1,6.146-6.371-6.509-2.9-2.181,2.615ZM26,45.41l2.863-3.433L19.321,28.132,9.657,42.147,12.52,45.2l.353.131-.028.076ZM1.281,45.075,7.962,42.1V27.637H1.281Zm35.376-.17V27.637h-6.3V42.1ZM9.243,40.49,18.542,27l-9.3-13.486Zm19.833-.467V13.984L20.1,27Zm7.581-13.667V9.682l-6.3,2.806V26.356Zm-28.7,0V12.417L1.281,9.442V26.356Zm11.359-.481,9.4-13.634L25.666,9.347H12.328L9.765,12.016ZM29.682,11.386,36.165,8.5,29.735,1.4,26.968,8.816ZM8.654,11.323l2.779-2.894L8.794,1.523,1.986,8.353ZM25.88,8.067l2.533-6.786H10.073l2.593,6.786Z" transform="translate(0 0)" fill="#fff"/>
    </g>
  </g>
</svg>
