<svg xmlns="http://www.w3.org/2000/svg" width="39.565" height="68.06" viewBox="0 0 39.565 68.06">
  <g id="icon-tools" transform="translate(-761.898 -609.161)">
    <path id="Tracé_4" data-name="Tracé 4" d="M44.7,54.026a18.367,18.367,0,0,1,.075-4.466,3.035,3.035,0,0,1,.469-.652,4.771,4.771,0,0,0-.415-7.051V31.72H43.494V25.96H41.378V0H39.213V25.96H37.1v5.76H35.763V41.9a5.364,5.364,0,0,0-1.774,3.692A4.435,4.435,0,0,0,35.4,49.04a2.967,2.967,0,0,1,.416.515,18.5,18.5,0,0,1,.075,4.472,12.777,12.777,0,0,0-1.976,7.5,7.338,7.338,0,0,0,3.911,5.915,5.241,5.241,0,0,0,4.939,0,7.338,7.338,0,0,0,3.911-5.915,12.782,12.782,0,0,0-1.976-7.5M43.241,37.6H37.35V33.307h5.891ZM41.906,31.72H38.685V27.547h3.222ZM45,62.05a5.743,5.743,0,0,1-3.015,4.009,3.728,3.728,0,0,1-3.382,0A5.743,5.743,0,0,1,35.59,62.05c-.611-3.159,1.2-6.576,1.5-7,.333-.288.674-.812.3-5.616a2.51,2.51,0,0,0-.825-1.462,2.929,2.929,0,0,1-1-2.341,4.053,4.053,0,0,1,1.47-2.746l.305-.239V39.188h5.891v3.07l0,.441.372.234a3.126,3.126,0,0,1,1.4,2.658l0,.041,0,.041a3.1,3.1,0,0,1-.991,2.218,2.83,2.83,0,0,0-.834,1.542c-.37,4.8-.029,5.327.3,5.616.3.425,2.116,3.842,1.5,7" transform="translate(754.75 609.162)" fill="#fff"/>
    <path id="Tracé_5" data-name="Tracé 5" d="M17.386,12.268c-.136-1.629-4.21-9.3-5.024-10.816L11.583,0,8.855,7.564,6.126,0,5.347,1.452C4.532,2.973.458,10.639.322,12.268.212,13.584.278,43.525.312,56.527A8.72,8.72,0,1,0,17.4,57.895c.019-7.519.106-44.211-.011-45.627M8.723,50.083a8.675,8.675,0,0,0-2.157.281V42.446h4.315v7.919a8.684,8.684,0,0,0-2.158-.281M6.566,22.843c.152-.461.907-2.6,2.243-2.5,1.374.085,1.96,1.843,2.071,2.225v14H6.566Zm5.763-.543a6.015,6.015,0,0,0-.433-1.148l3.486-10.311a7.219,7.219,0,0,1,.541,1.549c.038.461.053,5.421.055,12.206H12.349V22.471ZM11.842,3.61c.905,1.728,1.88,3.655,2.651,5.277L10.835,19.7A3.2,3.2,0,0,0,9.588,19V9.859Zm-5.975,0L8.12,9.859v9.09a2.908,2.908,0,0,0-1.224.628L3.254,8.806c.765-1.606,1.722-3.5,2.612-5.2M1.786,12.39a7.58,7.58,0,0,1,.577-1.636l3.442,10.18a7.714,7.714,0,0,0-.68,1.6l0,2.065H1.73c0-6.976.017-11.743.056-12.206M8.723,66.062A7.243,7.243,0,0,1,1.6,57.421c.047-.238.107-.471.176-.7v-.4c0-.123,0-.245,0-.367l-.006-2.4c-.024-9.843-.041-19.819-.043-27.492H5.119L5.1,38.038h5.783v2.939H5.1V52.532A7.239,7.239,0,0,1,15.93,57.993a7.416,7.416,0,0,1,.048.812v0a7.263,7.263,0,0,1-7.255,7.255m3.626-15.179V26.065h3.629c0,8.463-.019,19.3-.039,27.848a8.772,8.772,0,0,0-3.59-3.03" transform="translate(761.898 609.162)" fill="#fff"/>
    <path id="Tracé_6" data-name="Tracé 6" d="M11.555,83.387a3.14,3.14,0,1,0,3.139,3.14,3.143,3.143,0,0,0-3.139-3.14m0,4.811a1.671,1.671,0,1,1,1.671-1.67,1.673,1.673,0,0,1-1.671,1.67" transform="translate(759.1 581.442)" fill="#fff"/>
  </g>
</svg>
